<svg version="1.1" id="Layer_1" xmlns="http://www.w3.org/2000/svg" xmlns:xlink="http://www.w3.org/1999/xlink" x="0px" y="0px"
	 width="100%" viewBox="0 0 360 360" enable-background="new 0 0 360 360" xml:space="preserve">
<path fill="#FFFDFC" opacity="1.000000" stroke="none" 
	d="
M194.000000,361.000000 
	C129.355606,361.000000 65.211227,361.000000 1.033418,361.000000 
	C1.033418,241.063950 1.033418,121.127892 1.033418,1.095913 
	C120.894333,1.095913 240.788757,1.095913 360.841614,1.095913 
	C360.841614,120.999832 360.841614,240.999893 360.841614,361.000000 
	C305.461334,361.000000 249.980667,361.000000 194.000000,361.000000 
M253.590912,297.410431 
	C252.746780,297.539032 251.902634,297.667633 250.116318,297.859222 
	C202.960312,297.850220 155.804306,297.841187 108.028770,297.872284 
	C107.404945,297.889801 106.781128,297.907288 105.224106,297.826080 
	C96.493752,297.692780 96.493752,297.692780 97.060165,304.962738 
	C97.036613,312.281525 97.110222,319.602509 96.942123,326.917969 
	C96.874031,329.881317 97.792976,331.035431 100.907166,331.022461 
	C124.528313,330.924133 148.150269,331.001831 171.771042,330.865875 
	C173.051331,330.858490 174.945801,329.696075 175.424591,328.584595 
	C175.905182,327.468964 175.082047,325.706451 174.609451,324.301758 
	C174.376526,323.609406 173.645432,323.084656 173.745773,323.203827 
	C176.225174,320.999481 178.472534,319.001434 180.797058,316.934753 
	C181.219315,319.966858 182.629303,322.335571 186.839981,321.869019 
	C186.984009,322.269775 187.128036,322.670563 186.666931,323.484497 
	C185.886276,325.078094 184.555908,326.666687 184.541443,328.267212 
	C184.533401,329.156281 186.716293,330.843018 187.919769,330.850342 
	C212.020401,330.997162 236.122559,330.995300 260.222626,330.800598 
	C261.301758,330.791870 263.249725,328.710541 263.290741,327.541870 
	C263.564209,319.747955 263.428802,311.939697 263.729340,303.291016 
	C264.691864,298.839325 262.843781,297.119507 258.431274,297.714142 
	C256.960754,297.912323 255.450027,297.812378 253.590912,297.410431 
M328.128479,185.341705 
	C325.799927,185.215729 323.471405,185.089752 321.705109,184.994186 
	C320.775513,182.447052 319.811371,179.805145 319.181641,178.079590 
	C321.529785,176.191666 323.691071,174.453995 325.766449,172.785416 
	C326.653595,174.082870 327.681702,175.586472 328.709808,177.090088 
	C329.152893,176.942749 329.595947,176.795410 330.039001,176.648071 
	C330.039001,172.943909 330.039001,169.239731 330.039001,165.500061 
	C310.656036,165.500061 291.567352,165.500061 272.251892,165.500061 
	C272.251892,206.826935 272.251892,247.864777 272.251892,289.060883 
	C274.713837,289.060883 276.858734,289.060883 279.926239,289.154083 
	C283.948181,289.115601 287.970123,289.077118 292.918549,289.204254 
	C305.383667,289.169830 317.848816,289.135406 331.044373,288.816589 
	C331.361115,287.091797 331.947205,285.367950 331.953247,283.642059 
	C332.019287,264.833221 332.079529,246.023514 331.966278,227.215103 
	C331.883240,213.429001 331.587952,199.643356 331.263306,185.860428 
	C331.212311,183.696274 330.501984,181.547653 330.096558,179.391861 
	C325.963501,180.723099 329.729248,183.675812 328.128479,185.341705 
M29.059376,215.923981 
	C29.059376,240.203445 29.059376,264.482910 29.059376,288.852875 
	C42.758923,288.852875 55.867981,288.852875 69.730003,289.145233 
	C73.486458,289.099365 77.242912,289.053497 81.906044,289.191681 
	C83.857674,289.191681 85.809311,289.191681 88.000397,289.191681 
	C88.000397,247.710373 88.000397,206.713226 88.000397,165.552185 
	C68.243149,165.552185 48.864727,165.552185 29.430241,165.552185 
	C29.430241,169.434219 29.430241,172.977142 29.430241,176.520050 
	C29.822998,176.756897 30.215755,176.993729 30.608515,177.230560 
	C32.019127,175.625946 33.429737,174.021317 34.292572,173.039810 
	C36.607643,174.767731 38.870205,176.456482 40.829025,177.918503 
	C40.089218,180.028580 39.135784,182.747940 38.192875,185.437286 
	C32.179070,182.960220 29.078289,185.183945 29.058300,192.566833 
	C29.038919,199.725464 29.007332,206.884048 28.950312,214.515320 
	C28.950312,214.515320 28.994417,214.986908 29.059376,215.923981 
M158.939270,25.193632 
	C121.377533,30.944817 90.047966,48.088043 65.405281,77.013390 
	C59.131229,84.377815 53.903210,92.633400 47.408634,101.559746 
	C136.392303,101.559746 223.471313,101.559746 311.054260,101.559746 
	C310.431000,100.159546 310.130157,99.239685 309.645416,98.429924 
	C293.174866,70.916481 270.515259,50.233101 241.269470,36.982281 
	C215.296448,25.214310 188.058182,21.625896 158.939270,25.193632 
M93.500061,110.299110 
	C72.111404,110.299110 50.722752,110.299110 29.362080,110.299110 
	C29.362080,126.236343 29.362080,141.316925 29.362080,156.899918 
	C31.455359,156.899918 33.244724,156.899948 35.034088,156.899933 
	C51.350883,156.899811 67.669991,156.746597 83.983063,156.992874 
	C88.872719,157.066696 92.955086,155.866119 97.066292,153.299576 
	C118.240990,140.080551 139.539841,127.060410 160.785065,113.954201 
	C162.092270,113.147781 163.311386,112.198586 164.571487,111.315826 
	C164.451141,110.977028 164.330811,110.638222 164.210464,110.299423 
	C140.973663,110.299423 117.736870,110.299423 93.500061,110.299110 
M330.736542,117.661880 
	C330.725861,110.295364 330.725861,110.295944 323.586792,110.295746 
	C283.594238,110.294624 243.601715,110.293205 203.609177,110.291893 
	C201.963913,110.291840 200.318649,110.291885 197.445435,110.291885 
	C199.114777,111.783455 199.552658,112.289627 200.091812,112.639870 
	C222.020935,126.885284 243.939667,141.147018 265.937531,155.285614 
	C267.504608,156.292816 269.658020,156.820801 271.543427,156.832611 
	C289.872620,156.947418 308.203400,156.830826 326.532196,156.973206 
	C329.897766,156.999344 330.822906,155.787811 330.786682,152.619247 
	C330.657104,141.289505 330.736206,129.957397 330.736542,117.661880 
M195.082489,119.426537 
	C191.723862,117.265381 188.261703,115.245903 185.042496,112.893913 
	C182.848831,111.291222 181.160873,111.235924 178.795471,112.705879 
	C156.888062,126.319954 134.897171,139.799622 112.944366,153.340759 
	C111.528084,154.214355 110.226196,155.273407 108.330269,156.634430 
	C156.512680,156.634430 203.690964,156.634430 252.352936,156.634430 
	C232.687714,143.859802 214.188263,131.842453 195.082489,119.426537 
M166.207443,191.500000 
	C166.207443,223.896103 166.207443,256.292206 166.207443,288.839844 
	C175.522583,288.839844 184.209625,288.839844 192.944138,288.839844 
	C192.944138,247.562973 192.944138,206.691910 192.944138,165.218048 
	C185.243637,165.218048 177.799576,165.362534 170.365479,165.153091 
	C166.980301,165.057724 166.074005,166.381607 166.150330,169.534943 
	C166.319382,176.519653 166.205933,183.511230 166.207443,191.500000 
M157.891235,268.499817 
	C157.891235,234.275085 157.891235,200.050369 157.891235,165.215408 
	C150.494736,165.215408 143.702957,165.501648 136.949417,165.116852 
	C132.285767,164.851166 130.702499,166.072113 130.730103,171.045334 
	C130.938919,208.655045 130.840836,246.266418 130.855576,283.877289 
	C130.856201,285.487061 131.023834,287.096802 131.120102,288.821869 
	C140.199463,288.821869 148.879715,288.821869 157.891144,288.821869 
	C157.891144,282.101624 157.891144,275.800598 157.891235,268.499817 
M201.841293,222.500000 
	C201.841293,244.585922 201.841293,266.671844 201.841293,288.924805 
	C211.169571,288.924805 219.736465,288.924805 228.292786,288.924805 
	C228.525925,288.165344 228.791962,287.702820 228.792358,287.239990 
	C228.826904,247.756470 228.821106,208.272873 228.896500,168.789429 
	C228.902130,165.847031 227.638489,165.115692 224.964737,165.171555 
	C218.803268,165.300247 212.625504,165.442047 206.477356,165.128021 
	C202.575928,164.928757 201.734482,166.418777 201.768188,170.021561 
	C201.928680,187.179764 201.840683,204.340302 201.841293,222.500000 
M263.518616,288.051819 
	C263.574677,260.739624 263.637543,233.427460 263.683655,206.115250 
	C263.703918,194.122940 263.526642,182.127106 263.782288,170.140182 
	C263.868988,166.075165 262.496063,164.921234 258.624115,165.129501 
	C253.309570,165.415344 247.943802,165.515198 242.645554,165.105515 
	C238.057404,164.750732 237.103409,166.518585 237.119934,170.776642 
	C237.266617,208.585236 237.200531,246.394653 237.217712,284.203827 
	C237.218430,285.782715 237.421371,287.361572 237.520889,288.806732 
	C246.412720,288.806732 254.698013,288.806732 263.518616,288.051819 
M96.986900,206.500000 
	C96.986900,233.920715 96.986900,261.341431 96.986900,288.840210 
	C105.806114,288.840210 113.860062,288.840210 121.772003,288.840210 
	C122.016319,288.127167 122.213577,287.819916 122.213943,287.512360 
	C122.260498,247.863297 122.279144,208.214188 122.355469,168.565186 
	C122.360611,165.895401 121.188141,165.134125 118.711739,165.181030 
	C113.049339,165.288330 107.372948,165.421997 101.722694,165.137894 
	C97.917000,164.946548 96.857063,166.343964 96.916306,170.014969 
	C97.107155,181.840607 96.987076,193.671280 96.986900,206.500000 
M88.379814,325.396240 
	C88.379921,317.908569 88.196617,310.414520 88.456261,302.935883 
	C88.589294,299.104034 87.551834,297.740540 83.481567,297.794891 
	C66.845245,298.017090 50.204208,297.878174 33.564960,297.904633 
	C32.150501,297.906860 30.736420,298.148346 29.397766,298.271698 
	C29.397766,309.358154 29.397766,319.923370 29.397766,330.353180 
	C30.032228,330.612793 30.330122,330.840851 30.628675,330.841705 
	C48.762817,330.894836 66.897430,330.874023 85.030853,331.011505 
	C88.725372,331.039490 88.411987,328.739349 88.379814,325.396240 
M271.935120,322.446167 
	C271.935120,325.189789 271.935120,327.933441 271.935120,330.969208 
	C290.959290,330.969208 309.105286,330.927551 327.250702,331.009399 
	C330.343201,331.023346 330.774231,329.396790 330.755096,326.903931 
	C330.693756,318.906525 330.558746,310.902893 330.808319,302.912781 
	C330.930878,298.989136 329.687469,297.746765 325.697327,297.796417 
	C309.204254,298.001770 292.707092,297.872253 276.211487,297.895233 
	C274.936737,297.897034 273.662354,298.127319 271.935150,298.295471 
	C271.935150,306.200623 271.935150,313.829346 271.935120,322.446167 
z"/>
<path fill="#E47934" opacity="1.000000" stroke="none" 
	d="
M159.382385,25.133144 
	C188.058182,21.625896 215.296448,25.214310 241.269470,36.982281 
	C270.515259,50.233101 293.174866,70.916481 309.645416,98.429924 
	C310.130157,99.239685 310.431000,100.159546 311.054260,101.559746 
	C223.471313,101.559746 136.392303,101.559746 47.408634,101.559746 
	C53.903210,92.633400 59.131229,84.377815 65.405281,77.013390 
	C90.047966,48.088043 121.377533,30.944817 159.382385,25.133144 
z"/>
<path fill="#E47A35" opacity="1.000000" stroke="none" 
	d="
M68.977043,288.852875 
	C55.867981,288.852875 42.758923,288.852875 29.059376,288.852875 
	C29.059376,264.482910 29.059376,240.203445 29.395742,215.438065 
	C33.400402,217.027359 35.670544,219.763474 33.840405,225.062897 
	C37.188931,219.865417 40.402576,223.030609 42.436142,223.989166 
	C43.582066,220.654358 44.626221,217.615707 45.364002,215.468643 
	C43.061337,213.796432 40.556046,211.977051 38.094387,210.189362 
	C37.254795,215.208694 33.278000,214.967041 28.981106,214.042664 
	C29.007332,206.884048 29.038919,199.725464 29.058300,192.566833 
	C29.078289,185.183945 32.179070,182.960220 38.192875,185.437286 
	C39.135784,182.747940 40.089218,180.028580 40.829025,177.918503 
	C38.870205,176.456482 36.607643,174.767731 34.292572,173.039810 
	C33.429737,174.021317 32.019127,175.625946 30.608515,177.230560 
	C30.215755,176.993729 29.822998,176.756897 29.430241,176.520050 
	C29.430241,172.977142 29.430241,169.434219 29.430241,165.552185 
	C48.864727,165.552185 68.243149,165.552185 88.000397,165.552185 
	C88.000397,206.713226 88.000397,247.710373 88.000397,289.191681 
	C85.809311,289.191681 83.857674,289.191681 81.452118,288.775757 
	C80.480370,287.562378 79.962555,286.764923 79.320526,285.652893 
	C79.124374,284.894379 79.052422,284.450409 79.238556,283.815399 
	C79.687286,282.800293 79.877937,281.976227 80.269409,280.890198 
	C81.158730,280.012970 81.847237,279.397766 81.989151,279.270935 
	C79.230293,277.474091 76.602699,275.762726 73.799583,273.937073 
	C73.950005,278.336731 70.071640,278.013733 66.059059,278.590881 
	C71.121109,280.744965 70.885307,284.087616 69.056824,288.074768 
	C68.995415,288.504852 68.986229,288.678864 68.977043,288.852875 
M57.380619,254.531921 
	C58.476345,253.048203 59.572071,251.564499 59.976715,251.016571 
	C57.164345,248.820221 54.750927,246.935440 52.103966,244.868271 
	C53.013710,250.076950 48.144142,248.904968 46.336533,249.709045 
	C47.386906,253.217972 48.280449,256.202972 48.902584,258.281311 
	C51.772713,258.281311 54.946968,258.281311 58.088383,258.281311 
	C57.997913,257.865204 57.719757,256.585815 57.380619,254.531921 
z"/>
<path fill="#E47B36" opacity="1.000000" stroke="none" 
	d="
M330.313934,289.100983 
	C317.848816,289.135406 305.383667,289.169830 292.435181,288.841522 
	C291.485291,287.990906 291.018738,287.503021 290.414062,286.614319 
	C290.922180,283.540344 291.568512,280.867188 292.091309,278.704773 
	C290.229919,277.529938 287.658936,275.907227 285.408813,274.487061 
	C283.360443,275.824066 280.713379,277.551849 278.086090,279.266724 
	C281.716278,281.016968 281.804169,284.266174 279.853149,288.089203 
	C279.409424,288.489258 279.206543,288.775085 279.003662,289.060913 
	C276.858734,289.060883 274.713837,289.060883 272.251892,289.060883 
	C272.251892,247.864777 272.251892,206.826935 272.251892,165.500061 
	C291.567352,165.500061 310.656036,165.500061 330.039001,165.500061 
	C330.039001,169.239731 330.039001,172.943909 330.039001,176.648071 
	C329.595947,176.795410 329.152893,176.942749 328.709808,177.090088 
	C327.681702,175.586472 326.653595,174.082870 325.766449,172.785416 
	C323.691071,174.453995 321.529785,176.191666 319.181641,178.079590 
	C319.811371,179.805145 320.775513,182.447052 321.705109,184.994186 
	C323.471405,185.089752 325.799927,185.215729 328.644104,185.844772 
	C329.718933,195.489059 330.278198,204.630280 330.810089,213.324295 
	C325.179169,215.725952 322.741180,213.625183 321.054779,208.814178 
	C321.276520,214.779510 316.687256,214.037415 311.739349,215.450989 
	C318.264069,217.097839 317.255188,220.705383 316.546600,223.165802 
	C319.831421,223.165802 323.014099,223.165802 326.115723,223.165802 
	C325.724945,218.185059 325.724945,218.185059 330.313934,216.131165 
	C330.313934,240.648041 330.313934,264.874512 330.313934,289.100983 
M308.047699,245.909103 
	C307.485901,245.599579 306.558197,244.904572 306.417236,245.038406 
	C304.346130,247.004471 302.379761,249.080887 300.553589,250.961105 
	C301.275208,252.975632 302.311707,255.869324 303.100677,258.071869 
	C305.825958,258.071869 308.760925,258.071869 310.719666,258.071869 
	C311.824615,255.380219 312.941406,252.659698 313.813385,250.535568 
	C312.110626,249.324799 310.191315,247.960083 308.047699,245.909103 
z"/>
<path fill="#E47B36" opacity="1.000000" stroke="none" 
	d="
M263.426208,304.136078 
	C263.428802,311.939697 263.564209,319.747955 263.290741,327.541870 
	C263.249725,328.710541 261.301758,330.791870 260.222626,330.800598 
	C236.122559,330.995300 212.020401,330.997162 187.919769,330.850342 
	C186.716293,330.843018 184.533401,329.156281 184.541443,328.267212 
	C184.555908,326.666687 185.886276,325.078094 187.272278,323.214508 
	C188.052505,322.434753 188.227386,321.924988 188.402252,321.415222 
	C187.793320,321.372803 187.184372,321.330353 186.575424,321.287933 
	C182.629303,322.335571 181.219315,319.966858 180.797058,316.934753 
	C178.472534,319.001434 176.225174,320.999481 173.745773,323.203827 
	C173.645432,323.084656 174.376526,323.609406 174.609451,324.301758 
	C175.082047,325.706451 175.905182,327.468964 175.424591,328.584595 
	C174.945801,329.696075 173.051331,330.858490 171.771042,330.865875 
	C148.150269,331.001831 124.528313,330.924133 100.907166,331.022461 
	C97.792976,331.035431 96.874031,329.881317 96.942123,326.917969 
	C97.110222,319.602509 97.036613,312.281525 97.439804,304.515594 
	C98.187225,304.055542 98.555000,304.042603 99.230125,304.195190 
	C103.637184,306.016815 102.864555,309.535614 102.489418,311.811493 
	C105.868889,311.811493 108.945847,311.811493 110.918221,311.811493 
	C112.225426,308.823975 113.489487,305.935028 114.744514,303.066772 
	C111.259811,303.429291 108.041183,302.909454 108.648293,297.832153 
	C155.804306,297.841187 202.960312,297.850220 250.673035,298.214630 
	C251.401154,299.068787 251.572556,299.567535 251.541473,300.420349 
	C249.290741,301.869446 247.242477,302.964447 245.921722,303.670532 
	C246.942612,306.334625 248.082764,309.309937 248.938263,311.542389 
	C251.542969,311.658722 254.600662,311.795319 257.923615,311.943726 
	C255.216797,308.182739 257.739441,305.942902 261.296326,304.013184 
	C262.210144,304.064911 262.818176,304.100494 263.426208,304.136078 
M147.321945,316.881775 
	C145.465240,315.329071 143.608536,313.776367 141.408600,311.936615 
	C141.575394,316.439850 138.240982,317.159912 135.430695,317.183624 
	C136.389160,320.287811 137.309372,323.268066 138.023743,325.581726 
	C140.726288,325.581726 143.854843,325.581726 146.449387,325.581726 
	C147.210159,323.220215 148.203506,320.136810 149.199203,317.046021 
	C149.333237,317.063995 148.687744,316.977448 147.321945,316.881775 
M214.881622,315.605072 
	C212.908920,316.278046 210.936218,316.950989 210.106918,317.233887 
	C211.133224,320.341614 212.091141,323.242249 212.851791,325.545593 
	C215.435806,325.545593 218.507538,325.545593 220.964508,325.545593 
	C221.764648,323.076050 222.718353,320.132568 223.726852,317.019958 
	C219.378891,318.751648 218.601471,314.267426 216.581909,311.322205 
	C216.002563,312.772827 215.574722,313.844055 214.881622,315.605072 
z"/>
<path fill="#E47B37" opacity="1.000000" stroke="none" 
	d="
M94.000061,110.299271 
	C117.736870,110.299423 140.973663,110.299423 164.210464,110.299423 
	C164.330811,110.638222 164.451141,110.977028 164.571487,111.315826 
	C163.311386,112.198586 162.092270,113.147781 160.785065,113.954201 
	C139.539841,127.060410 118.240990,140.080551 97.066292,153.299576 
	C92.955086,155.866119 88.872719,157.066696 83.983063,156.992874 
	C67.669991,156.746597 51.350883,156.899811 35.034088,156.899933 
	C33.244724,156.899948 31.455359,156.899918 29.362080,156.899918 
	C29.362080,141.316925 29.362080,126.236343 29.362080,110.299110 
	C50.722752,110.299110 72.111404,110.299110 94.000061,110.299271 
z"/>
<path fill="#E47C37" opacity="1.000000" stroke="none" 
	d="
M330.736450,118.144028 
	C330.736206,129.957397 330.657104,141.289505 330.786682,152.619247 
	C330.822906,155.787811 329.897766,156.999344 326.532196,156.973206 
	C308.203400,156.830826 289.872620,156.947418 271.543427,156.832611 
	C269.658020,156.820801 267.504608,156.292816 265.937531,155.285614 
	C243.939667,141.147018 222.020935,126.885284 200.091812,112.639870 
	C199.552658,112.289627 199.114777,111.783455 197.445435,110.291885 
	C200.318649,110.291885 201.963913,110.291840 203.609177,110.291893 
	C243.601715,110.293205 283.594238,110.294624 323.586792,110.295746 
	C330.725861,110.295944 330.725861,110.295364 330.736450,118.144028 
z"/>
<path fill="#E47B37" opacity="1.000000" stroke="none" 
	d="
M195.385651,119.625824 
	C214.188263,131.842453 232.687714,143.859802 252.352936,156.634430 
	C203.690964,156.634430 156.512680,156.634430 108.330269,156.634430 
	C110.226196,155.273407 111.528084,154.214355 112.944366,153.340759 
	C134.897171,139.799622 156.888062,126.319954 178.795471,112.705879 
	C181.160873,111.235924 182.848831,111.291222 185.042496,112.893913 
	C188.261703,115.245903 191.723862,117.265381 195.385651,119.625824 
z"/>
<path fill="#E47B35" opacity="1.000000" stroke="none" 
	d="
M166.207565,191.000000 
	C166.205933,183.511230 166.319382,176.519653 166.150330,169.534943 
	C166.074005,166.381607 166.980301,165.057724 170.365479,165.153091 
	C177.799576,165.362534 185.243637,165.218048 192.944138,165.218048 
	C192.944138,206.691910 192.944138,247.562973 192.944138,288.839844 
	C184.209625,288.839844 175.522583,288.839844 166.207443,288.839844 
	C166.207443,256.292206 166.207443,223.896103 166.207565,191.000000 
z"/>
<path fill="#E47B35" opacity="1.000000" stroke="none" 
	d="
M157.891190,268.999695 
	C157.891144,275.800598 157.891144,282.101624 157.891144,288.821869 
	C148.879715,288.821869 140.199463,288.821869 131.120102,288.821869 
	C131.023834,287.096802 130.856201,285.487061 130.855576,283.877289 
	C130.840836,246.266418 130.938919,208.655045 130.730103,171.045334 
	C130.702499,166.072113 132.285767,164.851166 136.949417,165.116852 
	C143.702957,165.501648 150.494736,165.215408 157.891235,165.215408 
	C157.891235,200.050369 157.891235,234.275085 157.891190,268.999695 
z"/>
<path fill="#E47B36" opacity="1.000000" stroke="none" 
	d="
M201.841187,222.000000 
	C201.840683,204.340302 201.928680,187.179764 201.768188,170.021561 
	C201.734482,166.418777 202.575928,164.928757 206.477356,165.128021 
	C212.625504,165.442047 218.803268,165.300247 224.964737,165.171555 
	C227.638489,165.115692 228.902130,165.847031 228.896500,168.789429 
	C228.821106,208.272873 228.826904,247.756470 228.792358,287.239990 
	C228.791962,287.702820 228.525925,288.165344 228.292786,288.924805 
	C219.736465,288.924805 211.169571,288.924805 201.841293,288.924805 
	C201.841293,266.671844 201.841293,244.585922 201.841187,222.000000 
z"/>
<path fill="#E57E39" opacity="1.000000" stroke="none" 
	d="
M263.250977,288.429260 
	C254.698013,288.806732 246.412720,288.806732 237.520889,288.806732 
	C237.421371,287.361572 237.218430,285.782715 237.217712,284.203827 
	C237.200531,246.394653 237.266617,208.585236 237.119934,170.776642 
	C237.103409,166.518585 238.057404,164.750732 242.645554,165.105515 
	C247.943802,165.515198 253.309570,165.415344 258.624115,165.129501 
	C262.496063,164.921234 263.868988,166.075165 263.782288,170.140182 
	C263.526642,182.127106 263.703918,194.122940 263.683655,206.115250 
	C263.637543,233.427460 263.574677,260.739624 263.250977,288.429260 
z"/>
<path fill="#E47B35" opacity="1.000000" stroke="none" 
	d="
M96.986893,206.000000 
	C96.987076,193.671280 97.107155,181.840607 96.916306,170.014969 
	C96.857063,166.343964 97.917000,164.946548 101.722694,165.137894 
	C107.372948,165.421997 113.049339,165.288330 118.711739,165.181030 
	C121.188141,165.134125 122.360611,165.895401 122.355469,168.565186 
	C122.279144,208.214188 122.260498,247.863297 122.213943,287.512360 
	C122.213577,287.819916 122.016319,288.127167 121.772003,288.840210 
	C113.860062,288.840210 105.806114,288.840210 96.986900,288.840210 
	C96.986900,261.341431 96.986900,233.920715 96.986893,206.000000 
z"/>
<path fill="#E47B35" opacity="1.000000" stroke="none" 
	d="
M88.379517,325.883453 
	C88.411987,328.739349 88.725372,331.039490 85.030853,331.011505 
	C66.897430,330.874023 48.762817,330.894836 30.628675,330.841705 
	C30.330122,330.840851 30.032228,330.612793 29.397766,330.353180 
	C29.397766,319.923370 29.397766,309.358154 29.397766,298.271698 
	C30.736420,298.148346 32.150501,297.906860 33.564960,297.904633 
	C50.204208,297.878174 66.845245,298.017090 83.481567,297.794891 
	C87.551834,297.740540 88.589294,299.104034 88.456261,302.935883 
	C88.196617,310.414520 88.379921,317.908569 88.379517,325.883453 
z"/>
<path fill="#E47B37" opacity="1.000000" stroke="none" 
	d="
M271.935120,321.952118 
	C271.935150,313.829346 271.935150,306.200623 271.935150,298.295471 
	C273.662354,298.127319 274.936737,297.897034 276.211487,297.895233 
	C292.707092,297.872253 309.204254,298.001770 325.697327,297.796417 
	C329.687469,297.746765 330.930878,298.989136 330.808319,302.912781 
	C330.558746,310.902893 330.693756,318.906525 330.755096,326.903931 
	C330.774231,329.396790 330.343201,331.023346 327.250702,331.009399 
	C309.105286,330.927551 290.959290,330.969208 271.935120,330.969208 
	C271.935120,327.933441 271.935120,325.189789 271.935120,321.952118 
z"/>
<path fill="#FBEEE2" opacity="1.000000" stroke="none" 
	d="
M330.679138,288.958801 
	C330.313934,264.874512 330.313934,240.648041 330.313934,216.131165 
	C325.724945,218.185059 325.724945,218.185059 326.115723,223.165802 
	C323.014099,223.165802 319.831421,223.165802 316.546600,223.165802 
	C317.255188,220.705383 318.264069,217.097839 311.739349,215.450989 
	C316.687256,214.037415 321.276520,214.779510 321.054779,208.814178 
	C322.741180,213.625183 325.179169,215.725952 330.810089,213.324295 
	C330.278198,204.630280 329.718933,195.489059 328.984100,186.007156 
	C329.729248,183.675812 325.963501,180.723099 330.096558,179.391861 
	C330.501984,181.547653 331.212311,183.696274 331.263306,185.860428 
	C331.587952,199.643356 331.883240,213.429001 331.966278,227.215103 
	C332.079529,246.023514 332.019287,264.833221 331.953247,283.642059 
	C331.947205,285.367950 331.361115,287.091797 330.679138,288.958801 
z"/>
<path fill="#FBF0E6" opacity="1.000000" stroke="none" 
	d="
M28.965708,214.278992 
	C33.278000,214.967041 37.254795,215.208694 38.094387,210.189362 
	C40.556046,211.977051 43.061337,213.796432 45.364002,215.468643 
	C44.626221,217.615707 43.582066,220.654358 42.436142,223.989166 
	C40.402576,223.030609 37.188931,219.865417 33.840405,225.062897 
	C35.670544,219.763474 33.400402,217.027359 29.363262,214.969528 
	C28.994417,214.986908 28.950312,214.515320 28.965708,214.278992 
z"/>
<path fill="#F8DFCA" opacity="1.000000" stroke="none" 
	d="
M108.338531,297.852234 
	C108.041183,302.909454 111.259811,303.429291 114.744514,303.066772 
	C113.489487,305.935028 112.225426,308.823975 110.918221,311.811493 
	C108.945847,311.811493 105.868889,311.811493 102.489418,311.811493 
	C102.864555,309.535614 103.637184,306.016815 99.471100,303.880676 
	C102.805656,302.993561 106.834618,303.360992 106.157303,297.924805 
	C106.781128,297.907288 107.404945,297.889801 108.338531,297.852234 
z"/>
<path fill="#EA9B5F" opacity="1.000000" stroke="none" 
	d="
M263.577759,303.713562 
	C262.818176,304.100494 262.210144,304.064911 261.037201,303.730255 
	C258.075470,302.602783 254.355179,304.424866 253.781311,299.694946 
	C253.878616,298.835266 253.918152,298.341980 253.957687,297.848724 
	C255.450027,297.812378 256.960754,297.912323 258.431274,297.714142 
	C262.843781,297.119507 264.691864,298.839325 263.577759,303.713562 
z"/>
<path fill="#E89051" opacity="1.000000" stroke="none" 
	d="
M105.690704,297.875427 
	C106.834618,303.360992 102.805656,302.993561 99.163757,303.715149 
	C98.555000,304.042603 98.187225,304.055542 97.544128,304.061096 
	C96.493752,297.692780 96.493752,297.692780 105.690704,297.875427 
z"/>
<path fill="#E89051" opacity="1.000000" stroke="none" 
	d="
M79.444733,285.967499 
	C79.962555,286.764923 80.480370,287.562378 80.998779,288.683716 
	C77.242912,289.053497 73.486458,289.099365 69.353523,288.999054 
	C68.986229,288.678864 68.995415,288.504852 69.395340,288.078735 
	C72.432014,286.660217 74.879990,283.642792 78.049141,286.933411 
	C78.112144,286.998779 78.961990,286.306366 79.444733,285.967499 
z"/>
<path fill="#E89051" opacity="1.000000" stroke="none" 
	d="
M279.464966,289.107483 
	C279.206543,288.775085 279.409424,288.489258 280.220154,288.024902 
	C283.829834,284.766785 287.215973,286.183014 290.552216,287.015137 
	C291.018738,287.503021 291.485291,287.990906 291.971954,288.758698 
	C287.970123,289.077118 283.948181,289.115601 279.464966,289.107483 
z"/>
<path fill="#F8DFCA" opacity="1.000000" stroke="none" 
	d="
M253.774292,297.629578 
	C253.918152,298.341980 253.878616,298.835266 253.533966,299.681335 
	C252.733887,300.044861 252.238907,300.055573 251.743942,300.066284 
	C251.572556,299.567535 251.401154,299.068787 251.144135,298.183136 
	C251.902634,297.667633 252.746780,297.539032 253.774292,297.629578 
z"/>
<path fill="#EA9B5F" opacity="1.000000" stroke="none" 
	d="
M186.707703,321.578491 
	C187.184372,321.330353 187.793320,321.372803 188.402252,321.415222 
	C188.227386,321.924988 188.052505,322.434753 187.574844,323.007935 
	C187.128036,322.670563 186.984009,322.269775 186.707703,321.578491 
z"/>
<path fill="#FBEEE2" opacity="1.000000" stroke="none" 
	d="
M57.411110,254.919159 
	C57.719757,256.585815 57.997913,257.865204 58.088383,258.281311 
	C54.946968,258.281311 51.772713,258.281311 48.902584,258.281311 
	C48.280449,256.202972 47.386906,253.217972 46.336533,249.709045 
	C48.144142,248.904968 53.013710,250.076950 52.103966,244.868271 
	C54.750927,246.935440 57.164345,248.820221 59.976715,251.016571 
	C59.572071,251.564499 58.476345,253.048203 57.411110,254.919159 
z"/>
<path fill="#FBF0E6" opacity="1.000000" stroke="none" 
	d="
M79.320526,285.652893 
	C78.961990,286.306366 78.112144,286.998779 78.049141,286.933411 
	C74.879990,283.642792 72.432014,286.660217 69.447556,287.822632 
	C70.885307,284.087616 71.121109,280.744965 66.059059,278.590881 
	C70.071640,278.013733 73.950005,278.336731 73.799583,273.937073 
	C76.602699,275.762726 79.230293,277.474091 81.989151,279.270935 
	C81.847237,279.397766 81.158730,280.012970 79.984131,280.950256 
	C79.325516,282.183685 79.152992,283.095093 78.980476,284.006470 
	C79.052422,284.450409 79.124374,284.894379 79.320526,285.652893 
z"/>
<path fill="#E89051" opacity="1.000000" stroke="none" 
	d="
M79.238556,283.815399 
	C79.152992,283.095093 79.325516,282.183685 79.783310,281.212250 
	C79.877937,281.976227 79.687286,282.800293 79.238556,283.815399 
z"/>
<path fill="#FBEEE2" opacity="1.000000" stroke="none" 
	d="
M308.159851,246.252228 
	C310.191315,247.960083 312.110626,249.324799 313.813385,250.535568 
	C312.941406,252.659698 311.824615,255.380219 310.719666,258.071869 
	C308.760925,258.071869 305.825958,258.071869 303.100677,258.071869 
	C302.311707,255.869324 301.275208,252.975632 300.553589,250.961105 
	C302.379761,249.080887 304.346130,247.004471 306.417236,245.038406 
	C306.558197,244.904572 307.485901,245.599579 308.159851,246.252228 
z"/>
<path fill="#FBF0E6" opacity="1.000000" stroke="none" 
	d="
M290.414062,286.614319 
	C287.215973,286.183014 283.829834,284.766785 280.460938,287.910645 
	C281.804169,284.266174 281.716278,281.016968 278.086090,279.266724 
	C280.713379,277.551849 283.360443,275.824066 285.408813,274.487061 
	C287.658936,275.907227 290.229919,277.529938 292.091309,278.704773 
	C291.568512,280.867188 290.922180,283.540344 290.414062,286.614319 
z"/>
<path fill="#FBEEE2" opacity="1.000000" stroke="none" 
	d="
M147.682098,316.886322 
	C148.687744,316.977448 149.333237,317.063995 149.199203,317.046021 
	C148.203506,320.136810 147.210159,323.220215 146.449387,325.581726 
	C143.854843,325.581726 140.726288,325.581726 138.023743,325.581726 
	C137.309372,323.268066 136.389160,320.287811 135.430695,317.183624 
	C138.240982,317.159912 141.575394,316.439850 141.408600,311.936615 
	C143.608536,313.776367 145.465240,315.329071 147.682098,316.886322 
z"/>
<path fill="#FBEEE2" opacity="1.000000" stroke="none" 
	d="
M215.014252,315.260193 
	C215.574722,313.844055 216.002563,312.772827 216.581909,311.322205 
	C218.601471,314.267426 219.378891,318.751648 223.726852,317.019958 
	C222.718353,320.132568 221.764648,323.076050 220.964508,325.545593 
	C218.507538,325.545593 215.435806,325.545593 212.851791,325.545593 
	C212.091141,323.242249 211.133224,320.341614 210.106918,317.233887 
	C210.936218,316.950989 212.908920,316.278046 215.014252,315.260193 
z"/>
<path fill="#FBF0E6" opacity="1.000000" stroke="none" 
	d="
M251.541473,300.420349 
	C252.238907,300.055573 252.733887,300.044861 253.476196,300.047729 
	C254.355179,304.424866 258.075470,302.602783 260.731384,303.714111 
	C257.739441,305.942902 255.216797,308.182739 257.923615,311.943726 
	C254.600662,311.795319 251.542969,311.658722 248.938263,311.542389 
	C248.082764,309.309937 246.942612,306.334625 245.921722,303.670532 
	C247.242477,302.964447 249.290741,301.869446 251.541473,300.420349 
z"/>
</svg>